ply
format ascii 1.0
element vertex 34
property float32 x
property float32 y
property float32 z
element face 32
property list uint8 int32 vertex_indices
end_header
0.000000 -0.000000 -1.000000 
-0.000000 -2.000000 -1.000000 
-2.000000 -2.000000 -1.000000 
-2.000000 0.000000 -1.000000 
-0.000001 -2.000000 0.000000 
-2.000000 -2.000000 0.000000 
-2.000000 0.000000 0.000000 
-2.000000 2.000000 0.000000 
-1.999999 2.000000 -1.000000 
0.000000 2.000000 -1.000000 
0.000001 2.000000 0.000000 
2.000001 1.999999 0.000000 
2.000000 2.000000 -1.000000 
2.000000 -0.000001 -1.000000 
2.000000 -0.000001 -0.000000 
2.000000 -2.000000 -1.000001 
2.000000 -2.000001 -0.000001 
1.640000 -1.640001 0.999999 
0.359999 -1.640001 1.000000 
1.640000 -0.360001 1.000000 
0.000000 -0.000001 0.000000 
0.360000 -0.360001 1.000000 
0.360001 1.639999 1.000000 
1.640001 1.639999 1.000000 
1.640001 0.359999 1.000000 
0.360001 0.359999 1.000000 
-1.640000 1.640000 1.000000 
-0.359999 1.640000 1.000000 
-0.359999 0.360000 1.000000 
-1.640000 0.360000 1.000000 
-1.640000 -0.360000 1.000000 
-0.360000 -0.360000 1.000000 
-1.640000 -1.640000 1.000000 
-0.360000 -1.640000 1.000000 
4 0 1 2 3 
4 1 4 5 2 
4 2 5 6 3 
4 3 6 7 8 
4 0 3 8 9 
4 8 7 10 9 
4 9 10 11 12 
4 0 9 12 13 
4 14 13 12 11 
4 0 13 15 1 
4 4 1 15 16 
4 14 16 15 13 
4 4 16 17 18 
4 16 14 19 17 
4 14 20 21 19 
4 20 4 18 21 
4 19 21 18 17 
4 11 10 22 23 
4 14 11 23 24 
4 20 14 24 25 
4 10 20 25 22 
4 22 25 24 23 
4 10 7 26 27 
4 20 10 27 28 
4 7 6 29 26 
4 6 20 28 29 
4 29 28 27 26 
4 20 6 30 31 
4 6 5 32 30 
4 5 4 33 32 
4 4 20 31 33 
4 31 30 32 33 
